<svg xmlns="http://www.w3.org/2000/svg" version="1.1" width="1702px" height="1282px" style="shape-rendering:geometricPrecision; text-rendering:geometricPrecision; image-rendering:optimizeQuality; fill-rule:evenodd; clip-rule:evenodd" xmlns:xlink="http://www.w3.org/1999/xlink">
<g></g>
<g><path style="opacity: 1;" fill="#1a3a5c" d="M 528.5,351.5 C 605.833,351.5 683.167,351.5 760.5,351.5C 760.5,403.833 760.5,456.167 760.5,508.5C 683.531,581.967 606.365,655.3 529,728.5C 528.5,602.834 528.333,477.167 528.5,351.5 Z" data-index="1"></path></g>
<g><path style="opacity: 1;" fill="#1a3a5c" d="M 838.5,351.5 C 896.5,351.5 954.5,351.5 1012.5,351.5C 1012.5,391.167 1012.5,430.833 1012.5,470.5C 909.589,568.241 806.755,666.241 704,764.5C 703.5,827.166 703.333,889.832 703.5,952.5C 645.167,952.5 586.833,952.5 528.5,952.5C 528.333,912.165 528.5,871.832 529,831.5C 631.656,734.012 734.489,636.678 837.5,539.5C 838.5,476.837 838.833,414.17 838.5,351.5 Z" data-index="2"></path></g>
<g><path style="opacity:1" fill="#1a3a5c" d="M 838.5,351.5 C 896.664,350.501 954.998,350.168 1013.5,350.5C 1013.83,390.67 1013.5,430.67 1012.5,470.5C 1012.5,430.833 1012.5,391.167 1012.5,351.5C 954.5,351.5 896.5,351.5 838.5,351.5 Z" data-index="3"></path></g>
<g><path style="opacity:1" fill="#1a3a5c" d="M 528.5,351.5 C 605.998,350.501 683.665,350.167 761.5,350.5C 761.832,403.336 761.499,456.003 760.5,508.5C 760.5,456.167 760.5,403.833 760.5,351.5C 683.167,351.5 605.833,351.5 528.5,351.5 Z" data-index="4"></path></g>
<g><path style="opacity:1" fill="#1a3a5c" d="M 1011.5,575.5 C 1012.5,700.666 1012.83,825.999 1012.5,951.5C 935.5,951.5 858.5,951.5 781.5,951.5C 781.5,899.167 781.5,846.833 781.5,794.5C 858.087,721.583 934.754,648.583 1011.5,575.5 Z" data-index="5"></path></g>
<g><path style="opacity:1" fill="#1a3a5c" d="M 1011.5,575.5 C 1011.56,574.957 1011.89,574.624 1012.5,574.5C 1013.5,700.165 1013.83,825.832 1013.5,951.5C 1013.17,951.5 1012.83,951.5 1012.5,951.5C 1012.83,825.999 1012.5,700.666 1011.5,575.5 Z" data-index="6"></path></g>
<g><path style="opacity:1" fill="#1a3a5c" d="M 781.5,794.5 C 781.5,846.833 781.5,899.167 781.5,951.5C 858.5,951.5 935.5,951.5 1012.5,951.5C 1012.83,951.5 1013.17,951.5 1013.5,951.5C 936.002,952.499 858.335,952.833 780.5,952.5C 780.168,899.664 780.501,846.997 781.5,794.5 Z" data-index="7"></path></g>
</svg>